<mxfile host="Electron" agent="Mozilla/5.0 (X11; Linux x86_64) AppleWebKit/537.36 (KHTML, like Gecko) draw.io/26.0.9 Chrome/128.0.6613.186 Electron/32.2.5 Safari/537.36" version="26.0.9">
  <diagram name="Page-1" id="2YBvvXClWsGukQMizWep">
    <mxGraphModel dx="1404" dy="878" grid="1" gridSize="10" guides="1" tooltips="1" connect="1" arrows="1" fold="1" page="1" pageScale="1" pageWidth="850" pageHeight="1100" math="0" shadow="0">
      <root>
        <mxCell id="0" />
        <mxCell id="1" parent="0" />
        <mxCell id="aM9ryv3xv72pqoxQDRHE-5" value="SearchPanel" style="shape=umlLifeline;perimeter=lifelinePerimeter;whiteSpace=wrap;html=1;container=0;dropTarget=0;collapsible=0;recursiveResize=0;outlineConnect=0;portConstraint=eastwest;newEdgeStyle={&quot;edgeStyle&quot;:&quot;elbowEdgeStyle&quot;,&quot;elbow&quot;:&quot;vertical&quot;,&quot;curved&quot;:0,&quot;rounded&quot;:0};" parent="1" vertex="1">
          <mxGeometry x="240" y="80" width="100" height="560" as="geometry" />
        </mxCell>
        <mxCell id="aM9ryv3xv72pqoxQDRHE-6" value="" style="html=1;points=[];perimeter=orthogonalPerimeter;outlineConnect=0;targetShapes=umlLifeline;portConstraint=eastwest;newEdgeStyle={&quot;edgeStyle&quot;:&quot;elbowEdgeStyle&quot;,&quot;elbow&quot;:&quot;vertical&quot;,&quot;curved&quot;:0,&quot;rounded&quot;:0};" parent="aM9ryv3xv72pqoxQDRHE-5" vertex="1">
          <mxGeometry x="45" y="80" width="10" height="460" as="geometry" />
        </mxCell>
        <mxCell id="aM9ryv3xv72pqoxQDRHE-10" value="Search for room" style="html=1;verticalAlign=bottom;endArrow=block;endSize=6;elbow=vertical;rounded=0;endFill=1;" parent="1" edge="1">
          <mxGeometry relative="1" as="geometry">
            <mxPoint x="285" y="259.74" as="targetPoint" />
            <mxPoint x="100" y="259.74" as="sourcePoint" />
          </mxGeometry>
        </mxCell>
        <mxCell id="SFPaSA88H66n3JvD3_18-4" value="" style="shape=umlActor;verticalLabelPosition=bottom;verticalAlign=top;html=1;outlineConnect=0;align=center;" parent="1" vertex="1">
          <mxGeometry x="80" y="60" width="40" height="60" as="geometry" />
        </mxCell>
        <mxCell id="SFPaSA88H66n3JvD3_18-5" value="" style="endArrow=none;dashed=1;html=1;rounded=0;" parent="1" target="SFPaSA88H66n3JvD3_18-4" edge="1">
          <mxGeometry width="50" height="50" relative="1" as="geometry">
            <mxPoint x="100" y="640" as="sourcePoint" />
            <mxPoint x="220" y="230" as="targetPoint" />
          </mxGeometry>
        </mxCell>
        <mxCell id="SFPaSA88H66n3JvD3_18-6" value="Student" style="text;html=1;align=center;verticalAlign=middle;whiteSpace=wrap;rounded=0;" parent="1" vertex="1">
          <mxGeometry x="70" y="30" width="60" height="30" as="geometry" />
        </mxCell>
        <mxCell id="SFPaSA88H66n3JvD3_18-7" value="RoomManager" style="shape=umlLifeline;perimeter=lifelinePerimeter;whiteSpace=wrap;html=1;container=0;dropTarget=0;collapsible=0;recursiveResize=0;outlineConnect=0;portConstraint=eastwest;newEdgeStyle={&quot;edgeStyle&quot;:&quot;elbowEdgeStyle&quot;,&quot;elbow&quot;:&quot;vertical&quot;,&quot;curved&quot;:0,&quot;rounded&quot;:0};" parent="1" vertex="1">
          <mxGeometry x="440" y="80" width="100" height="420" as="geometry" />
        </mxCell>
        <mxCell id="SFPaSA88H66n3JvD3_18-8" value="" style="html=1;points=[];perimeter=orthogonalPerimeter;outlineConnect=0;targetShapes=umlLifeline;portConstraint=eastwest;newEdgeStyle={&quot;edgeStyle&quot;:&quot;elbowEdgeStyle&quot;,&quot;elbow&quot;:&quot;vertical&quot;,&quot;curved&quot;:0,&quot;rounded&quot;:0};" parent="SFPaSA88H66n3JvD3_18-7" vertex="1">
          <mxGeometry x="45" y="80" width="10" height="330" as="geometry" />
        </mxCell>
        <mxCell id="SFPaSA88H66n3JvD3_18-16" value="" style="endArrow=block;html=1;rounded=0;elbow=vertical;endFill=1;verticalAlign=middle;edgeStyle=orthogonalEdgeStyle;" parent="1" edge="1">
          <mxGeometry width="50" height="50" relative="1" as="geometry">
            <mxPoint x="290" y="267.51" as="sourcePoint" />
            <mxPoint x="297" y="314.51" as="targetPoint" />
            <Array as="points">
              <mxPoint x="290" y="265.51" />
              <mxPoint x="325" y="265.51" />
              <mxPoint x="325" y="314.51" />
            </Array>
          </mxGeometry>
        </mxCell>
        <mxCell id="SFPaSA88H66n3JvD3_18-17" value="set_up_search_items(search_text)" style="edgeLabel;html=1;align=center;verticalAlign=middle;resizable=0;points=[];" parent="SFPaSA88H66n3JvD3_18-16" vertex="1" connectable="0">
          <mxGeometry x="-0.0669" relative="1" as="geometry">
            <mxPoint x="65" y="-27" as="offset" />
          </mxGeometry>
        </mxCell>
        <mxCell id="SFPaSA88H66n3JvD3_18-19" value="room_array" style="html=1;verticalAlign=bottom;endArrow=open;elbow=vertical;rounded=0;dashed=1;endFill=0;" parent="1" edge="1" target="mw-xf2VV7G16MJs7i8_q-5">
          <mxGeometry relative="1" as="geometry">
            <mxPoint x="485" y="420" as="sourcePoint" />
            <mxPoint x="310" y="420" as="targetPoint" />
          </mxGeometry>
        </mxCell>
        <mxCell id="SFPaSA88H66n3JvD3_18-21" value="Show potential rooms." style="html=1;verticalAlign=bottom;endArrow=open;elbow=vertical;rounded=0;dashed=1;endFill=0;" parent="1" edge="1">
          <mxGeometry relative="1" as="geometry">
            <mxPoint x="290" y="460" as="sourcePoint" />
            <mxPoint x="105" y="460" as="targetPoint" />
          </mxGeometry>
        </mxCell>
        <mxCell id="SFPaSA88H66n3JvD3_18-22" value="loop" style="shape=umlFrame;whiteSpace=wrap;html=1;pointerEvents=0;" parent="1" vertex="1">
          <mxGeometry x="80" y="170" width="450" height="400" as="geometry" />
        </mxCell>
        <mxCell id="SFPaSA88H66n3JvD3_18-24" value="[selected_room = null]" style="text;html=1;align=center;verticalAlign=middle;whiteSpace=wrap;rounded=0;fillColor=default;" parent="1" vertex="1">
          <mxGeometry x="90" y="210" width="130" height="20" as="geometry" />
        </mxCell>
        <mxCell id="SFPaSA88H66n3JvD3_18-25" value="select_room(selected_room: Room)" style="html=1;verticalAlign=bottom;endArrow=block;endSize=6;elbow=vertical;rounded=0;endFill=1;" parent="1" edge="1">
          <mxGeometry relative="1" as="geometry">
            <mxPoint x="285" y="535" as="targetPoint" />
            <mxPoint x="100" y="535" as="sourcePoint" />
          </mxGeometry>
        </mxCell>
        <mxCell id="SFPaSA88H66n3JvD3_18-26" value="Show room information." style="html=1;verticalAlign=bottom;endArrow=open;elbow=vertical;rounded=0;dashed=1;endFill=0;" parent="1" edge="1">
          <mxGeometry relative="1" as="geometry">
            <mxPoint x="285" y="600" as="sourcePoint" />
            <mxPoint x="100" y="600" as="targetPoint" />
          </mxGeometry>
        </mxCell>
        <mxCell id="SFPaSA88H66n3JvD3_18-27" value="opt" style="shape=umlFrame;whiteSpace=wrap;html=1;pointerEvents=0;" parent="1" vertex="1">
          <mxGeometry x="90" y="480" width="220" height="70" as="geometry" />
        </mxCell>
        <mxCell id="mw-xf2VV7G16MJs7i8_q-1" value="" style="html=1;points=[];perimeter=orthogonalPerimeter;outlineConnect=0;targetShapes=umlLifeline;portConstraint=eastwest;newEdgeStyle={&quot;edgeStyle&quot;:&quot;elbowEdgeStyle&quot;,&quot;elbow&quot;:&quot;vertical&quot;,&quot;curved&quot;:0,&quot;rounded&quot;:0};" vertex="1" parent="1">
          <mxGeometry x="290" y="300" width="10" height="140" as="geometry" />
        </mxCell>
        <mxCell id="mw-xf2VV7G16MJs7i8_q-2" value="" style="endArrow=block;html=1;rounded=0;elbow=vertical;endFill=1;verticalAlign=middle;edgeStyle=orthogonalEdgeStyle;" edge="1" parent="1">
          <mxGeometry width="50" height="50" relative="1" as="geometry">
            <mxPoint x="300" y="327.49" as="sourcePoint" />
            <mxPoint x="307" y="374.49" as="targetPoint" />
            <Array as="points">
              <mxPoint x="300" y="325.49" />
              <mxPoint x="335" y="325.49" />
              <mxPoint x="335" y="374.49" />
            </Array>
          </mxGeometry>
        </mxCell>
        <mxCell id="mw-xf2VV7G16MJs7i8_q-3" value="general_search(search_text)" style="edgeLabel;html=1;align=center;verticalAlign=middle;resizable=0;points=[];" vertex="1" connectable="0" parent="mw-xf2VV7G16MJs7i8_q-2">
          <mxGeometry x="-0.0669" relative="1" as="geometry">
            <mxPoint x="65" y="-27" as="offset" />
          </mxGeometry>
        </mxCell>
        <mxCell id="mw-xf2VV7G16MJs7i8_q-5" value="" style="html=1;points=[];perimeter=orthogonalPerimeter;outlineConnect=0;targetShapes=umlLifeline;portConstraint=eastwest;newEdgeStyle={&quot;edgeStyle&quot;:&quot;elbowEdgeStyle&quot;,&quot;elbow&quot;:&quot;vertical&quot;,&quot;curved&quot;:0,&quot;rounded&quot;:0};" vertex="1" parent="1">
          <mxGeometry x="295" y="331" width="10" height="100" as="geometry" />
        </mxCell>
        <mxCell id="mw-xf2VV7G16MJs7i8_q-8" value="" style="endArrow=block;html=1;rounded=0;elbow=vertical;endFill=1;verticalAlign=middle;" edge="1" parent="1" target="SFPaSA88H66n3JvD3_18-7">
          <mxGeometry width="50" height="50" relative="1" as="geometry">
            <mxPoint x="300" y="400" as="sourcePoint" />
            <mxPoint x="472" y="400" as="targetPoint" />
          </mxGeometry>
        </mxCell>
        <mxCell id="mw-xf2VV7G16MJs7i8_q-9" value="get_all_rooms()" style="edgeLabel;html=1;align=center;verticalAlign=middle;resizable=0;points=[];" vertex="1" connectable="0" parent="mw-xf2VV7G16MJs7i8_q-8">
          <mxGeometry x="-0.0669" relative="1" as="geometry">
            <mxPoint x="5" y="-10" as="offset" />
          </mxGeometry>
        </mxCell>
      </root>
    </mxGraphModel>
  </diagram>
</mxfile>
